<svg width="184" height="184" viewBox="0 0 184 184" fill="none" xmlns="http://www.w3.org/2000/svg">
<path d="M165.269 60.6783L168.444 38.442L182.421 24.4644C184.525 22.3607 184.526 18.9455 182.421 16.8407L167.173 1.59597C165.068 -0.508531 161.655 -0.508531 159.55 1.59633L145.575 15.5703L123.339 18.7479L165.269 60.6783Z" fill="white"/>
<path d="M89.049 45.4461L138.563 94.96L159.829 70.485L113.532 24.1875L89.049 45.4461Z" fill="white"/>
<path d="M54.6142 75.3456L108.652 129.383L131.474 103.118L80.8879 52.532L54.6142 75.3456Z" fill="white"/>
<path d="M46.4538 82.4321L1.85583 121.158C-0.501681 123.205 -0.633572 126.828 1.57839 129.04L54.9423 182.404C57.146 184.607 60.7678 184.493 62.8231 182.128L101.564 137.542L46.4538 82.4321Z" fill="white"/>
</svg>
