<svg width="180" height="183" viewBox="0 0 180 183" fill="none" xmlns="http://www.w3.org/2000/svg">
<path d="M16.375 182.5C17.2698 182.499 18.1277 182.143 18.7604 181.51C19.3931 180.878 19.749 180.02 19.75 179.125V91.375H13V179.125C13.001 180.02 13.3569 180.878 13.9896 181.51C14.6223 182.143 15.4802 182.499 16.375 182.5Z" fill="white"/>
<path d="M22.8752 44.125H9.87469L12.7675 84.625H19.9824L22.8752 44.125Z" fill="white"/>
<path d="M24.0675 37.375L32.1531 13.1142C32.4891 12.1031 32.5816 11.027 32.423 9.97336C32.2644 8.91975 31.8593 7.91848 31.2406 7.05105C28.0086 2.53825 23.0064 0.25 16.375 0.25C9.74353 0.25 4.74136 2.53825 1.5081 7.05105C0.889618 7.91859 0.484724 8.91991 0.326375 9.97351C0.168027 11.0271 0.260701 12.1032 0.596855 13.1142L8.68251 37.375H24.0675Z" fill="white"/>
<path d="M58.7768 37.375H75.2232C76.9415 34.3696 80.5 27.3238 80.5 20.5C80.5 10.0767 73.4926 3.625 67 3.625C60.5073 3.625 53.5 10.0767 53.5 20.5C53.5 27.3238 57.0585 34.3696 58.7768 37.375Z" fill="white"/>
<path d="M67 182.5C67.8948 182.499 68.7526 182.143 69.3853 181.51C70.0181 180.878 70.374 180.02 70.375 179.125V91.375H63.625V179.125C63.626 180.02 63.9819 180.878 64.6146 181.51C65.2473 182.143 66.1052 182.499 67 182.5Z" fill="white"/>
<path d="M73.5002 44.125H60.4997L63.3925 84.625H70.6074L73.5002 44.125Z" fill="white"/>
<path d="M156.717 25.8536L160.556 37.375H175.515L179.542 13.2121C179.635 12.6557 179.566 12.0844 179.344 11.5658C179.123 11.0471 178.757 10.6028 178.291 10.2854C177.825 9.96795 177.277 9.7907 176.713 9.77458C176.15 9.75846 175.593 9.90416 175.109 10.1944L158.916 19.9115C157.924 20.5 157.164 21.4114 156.764 22.4931C156.364 23.5748 156.347 24.7612 156.717 25.8536Z" fill="white"/>
<path d="M168.25 182.5C169.145 182.499 170.003 182.143 170.635 181.51C171.268 180.878 171.624 180.02 171.625 179.125V91.375H164.875V179.125C164.876 180.02 165.232 180.878 165.865 181.51C166.497 182.143 167.355 182.499 168.25 182.5Z" fill="white"/>
<path d="M174.75 44.125H161.75L164.642 84.625H171.857L174.75 44.125Z" fill="white"/>
<path d="M117.625 182.5C118.52 182.499 119.378 182.143 120.01 181.51C120.643 180.878 120.999 180.02 121 179.125V91.375H114.25V179.125C114.251 180.02 114.607 180.878 115.24 181.51C115.872 182.143 116.73 182.499 117.625 182.5Z" fill="white"/>
<path d="M132.035 14.7203C132.187 14.2165 132.218 13.6843 132.127 13.1662C132.036 12.6481 131.825 12.1584 131.511 11.7363C131.197 11.3142 130.789 10.9712 130.319 10.7349C129.849 10.4985 129.331 10.3753 128.805 10.375H106.445C105.919 10.375 105.4 10.4981 104.93 10.7343C104.46 10.9705 104.052 11.3134 103.737 11.7356C103.423 12.1578 103.212 12.6475 103.121 13.1658C103.03 13.684 103.062 14.2164 103.213 14.7203L110.009 37.375H125.239L132.035 14.7203Z" fill="white"/>
<path d="M124.125 44.125H111.125L114.018 84.625H121.232L124.125 44.125Z" fill="white"/>
</svg>
