<svg width="186" height="186" viewBox="0 0 186 186" fill="none" xmlns="http://www.w3.org/2000/svg">
<g clip-path="url(#clip0)">
<path d="M17.1805 91.7383C16.9632 91.7383 16.7447 91.7213 16.5273 91.6861C10.9013 90.7826 6.58831 88.2608 3.70696 84.1921C-1.39373 76.9895 0.22947 67.6198 0.300831 67.2246C0.482528 66.22 1.03146 65.3187 1.84059 64.6962C22.5809 48.7304 53.4683 33.6068 80.5302 26.1676C89.676 23.653 98.8991 22.3784 107.943 22.3784C132.627 22.3784 152.243 31.8969 164.352 39.8816C176.451 47.8598 183.573 55.8106 184.837 57.2746C185.557 58.0162 186 59.0273 186 60.1422C186 62.4077 184.17 64.2455 181.908 64.2592C181.087 64.251 180.244 64.0254 179.519 63.5209C170.942 57.548 144.491 51.1523 118.789 51.1523C109.78 51.1523 101.41 51.906 93.9126 53.3914C72.3555 57.6632 19.9109 90.7661 19.3839 91.1004C18.7208 91.5187 17.9562 91.7383 17.1805 91.7383ZM8.25817 70.1597C8.13685 72.3115 8.25707 76.3989 10.4517 79.468C11.7944 81.3453 13.7437 82.5936 16.3835 83.26C25.1873 77.7569 71.0743 49.522 92.3119 45.3139C100.336 43.7242 109.244 42.9178 118.789 42.9178C134.384 42.9178 149.57 45.0235 161.729 48.0454C161.033 47.5645 160.319 47.0831 159.585 46.6017C148.46 39.3075 130.47 30.6129 107.943 30.6129C99.6364 30.6129 91.1477 31.7887 82.7127 34.1074C57.1989 41.12 28.1949 55.1859 8.25817 70.1597Z" fill="white"/>
<path d="M163.103 99.6682C161.221 98.9727 159.112 99.7368 158.11 101.475C153.317 109.795 149.615 113.842 146.107 114.598C144.66 114.908 143.008 114.694 141.123 113.955C143.044 110.178 144.127 105.706 144.345 100.567C144.442 98.2958 142.679 96.3757 140.407 96.2791C138.132 96.1764 136.215 97.9456 136.118 100.218C135.963 103.865 135.27 107.011 134.053 109.637C131.605 107.883 128.229 105.696 123.982 103.489C125.323 100.347 126.087 96.7989 126.254 92.8619C126.351 90.5905 124.587 88.6703 122.316 88.5742C120.036 88.4666 118.124 90.2413 118.027 92.5128C117.908 95.325 117.391 97.8331 116.487 100.026C112.643 98.4539 108.34 96.9993 103.602 95.8328C104.333 93.4751 104.763 90.9506 104.878 88.2657C104.974 85.9942 103.21 84.0741 100.939 83.9775C98.6653 83.871 96.7473 85.6446 96.6507 87.9161C96.5508 90.2671 96.1144 92.3503 95.4244 94.2024C88.8537 93.1973 81.6209 92.8038 73.7761 93.3801C32.6835 96.4042 20.2282 117.322 13.4791 137.402C13.478 137.407 13.4763 137.411 13.4747 137.415C13.4697 137.43 13.4643 137.445 13.4599 137.459L13.461 137.461C13.0476 138.697 13.2299 140.099 14.0472 141.21C14.7202 142.125 30.956 163.62 67.1949 163.622C67.1966 163.622 67.1977 163.622 67.1993 163.622C69.6904 163.622 72.2539 163.517 74.8191 163.31C112.459 160.276 126.148 145.193 130.674 137.725C136.14 139.728 141.329 139.583 146.146 137.278C160.71 130.311 165.525 105.345 165.723 104.286C166.093 102.313 164.986 100.363 163.103 99.6682ZM99.8032 103.39C103.966 104.316 107.78 105.491 111.223 106.788C105.055 111.335 96.5245 111.294 94.8689 111.238C93.9049 110.986 92.9416 110.747 91.9793 110.53C95.162 108.537 97.7771 106.146 99.8032 103.39ZM73.1185 155.186C62.5383 155.186 53.9311 146.578 53.9311 135.998C53.9311 125.418 62.5383 116.81 73.1185 116.81C83.6986 116.81 92.3059 125.418 92.3059 135.998C92.3059 146.578 83.6986 155.186 73.1185 155.186ZM74.3821 101.592C79.9401 101.183 85.156 101.306 90.013 101.804C84.1586 106.751 75.9257 108.213 71.6386 108.645C70.5566 108.69 69.4862 108.759 68.4262 108.85C68.4185 108.851 68.4103 108.851 68.4026 108.852C52.6784 110.198 39.4206 116.38 28.9211 123.694C36.5112 112.311 49.359 103.434 74.3821 101.592ZM49.7345 121.709C47.1781 125.873 45.6971 130.764 45.6971 135.998C45.6971 142.875 48.2529 149.158 52.4517 153.975C36.6238 150.81 27.1552 143.107 23.0607 138.995C29.8768 132.661 38.8546 126.051 49.7345 121.709ZM116.711 141.156C112.576 144.52 105.985 148.449 95.8158 151.36C98.7959 146.976 100.54 141.687 100.54 135.998C100.54 129.995 98.6016 124.438 95.3168 119.917C104.604 122.681 114.02 127.277 123.491 133.696C122.314 135.58 120.221 138.299 116.711 141.156ZM115.595 119.378C113.783 118.431 111.971 117.546 110.162 116.724C112.832 115.623 115.505 114.1 117.897 111.97C118.452 111.476 118.973 110.957 119.474 110.422C123.348 112.389 126.462 114.359 128.758 115.974C123.79 119.373 117.622 119.456 115.595 119.378ZM142.594 129.851C139.158 131.495 135.327 131.154 130.892 128.816C129.525 127.843 128.158 126.908 126.792 126.004C129.692 125.047 132.719 123.549 135.448 121.209C135.65 121.036 135.84 120.854 136.034 120.676C140.277 122.785 144.175 123.435 147.84 122.647C148.772 122.446 149.668 122.157 150.533 121.79C148.375 125.335 145.733 128.349 142.594 129.851Z" fill="white"/>
<path d="M73.119 149.321C65.7727 149.321 59.7959 143.344 59.7959 135.998C59.7959 128.651 65.7727 122.674 73.119 122.674C80.4654 122.674 86.4422 128.651 86.4422 135.998C86.4416 143.345 80.4654 149.321 73.119 149.321ZM73.119 130.909C70.3129 130.909 68.0299 133.192 68.0299 135.998C68.0299 138.804 70.3129 141.087 73.119 141.087C75.9252 141.087 78.2082 138.804 78.2082 135.998C78.2082 133.192 75.9252 130.909 73.119 130.909Z" fill="white"/>
</g>
<defs>
<clipPath id="clip0">
<rect width="186" height="186" fill="white"/>
</clipPath>
</defs>
</svg>
